<?xml version="1.0" encoding="UTF-8" standalone="no"?><!DOCTYPE svg PUBLIC "-//W3C//DTD SVG 1.1//EN" "http://www.w3.org/Graphics/SVG/1.1/DTD/svg11.dtd"><svg width="100%" height="100%" viewBox="0 0 3508 1300" version="1.1" xmlns="http://www.w3.org/2000/svg" xmlns:xlink="http://www.w3.org/1999/xlink" xml:space="preserve" xmlns:serif="http://www.serif.com/" style="fill-rule:evenodd;clip-rule:evenodd;stroke-linejoin:round;stroke-miterlimit:2;"><g id="Layer-1" serif:id="Layer 1"><path d="M845.581,1055.66c-0,-0 -414.086,-183.304 -447.611,-492.655c-11.614,-107.16 19.343,-182.49 65.981,-233.165c112.752,-122.508 304.368,-115.862 390.344,28.255c123.815,-180.795 402.42,-104.903 392.382,152.591c-23.363,-108.513 -65.955,-199.372 -207.818,-199.095c-71.214,3.734 -136.119,50.033 -191.83,158.405c-40.042,-75.128 -109.302,-137.633 -179.851,-139.278c-110.358,-2.575 -165.656,123.826 -150.271,222.458c28.538,182.916 230.343,403.561 328.674,502.484" style="fill:#a11216;"/><path d="M558.176,704.343l58.13,0l52.319,-187.47l58.129,374.941l87.196,-261.587l27.611,108.995l43.597,-62.491l29.066,23.251l80.801,0l-0,-26.152l-58.999,-0l-53.773,-34.151l-28.701,42.145l-37.42,-140.238l-78.477,231.074l-58.858,-372.763l-84.289,274.305l-77.751,-0l41.419,30.141Z" style="fill:#a97949;"/><path d="M1007.76,665.322c11.738,0 21.254,9.516 21.254,21.255c-0,11.738 -9.516,21.254 -21.254,21.254c-11.739,-0 -21.255,-9.516 -21.255,-21.254c-0,-11.739 9.516,-21.255 21.255,-21.255" style="fill:#a97949;"/><path d="M1210.67,915.017c3.69,0.546 6.15,0.82 8.199,1.503c2.734,0.684 3.555,2.187 3.827,6.014c0.137,2.459 0.274,16.946 0.274,30.203c0,11.89 -0.137,23.507 -0.137,28.153c-0.409,6.287 -0.819,8.747 -4.783,9.977c-1.914,0.41 -4.1,0.82 -7.38,1.23c-0.411,0.546 -0.411,3.416 0.136,3.963c2.734,-0 10.114,-0.41 18.177,-0.41c8.746,0 15.17,0.41 17.766,0.41c0.547,-0.273 1.094,-3.28 0.547,-3.963c-4.099,-0.546 -6.15,-1.093 -8.199,-1.64c-3.417,-0.957 -3.964,-2.87 -4.238,-7.517c-0.135,-2.87 -0.135,-18.587 -0.135,-26.103c-0,-0.137 0.135,-0.82 0.409,-0.82c1.367,-0.137 12.573,-0.137 23.234,-0.137c7.516,0 19.132,0 21.729,0.137c0.411,0 0.821,0.547 0.821,0.957c-0,8.61 -0,23.506 -0.138,27.47c-0.272,4.236 -1.092,5.603 -3.552,6.286c-2.188,0.684 -4.237,0.957 -7.791,1.367c-0.546,0.683 -0.546,3.416 0,3.963c3.554,-0.137 10.387,-0.41 17.358,-0.41c6.969,0 14.213,0.41 18.313,0.41c0.819,-0.41 0.956,-3.417 0.546,-3.963c-4.236,-0.41 -6.834,-0.82 -8.747,-1.503c-2.596,-0.821 -3.417,-2.323 -3.827,-6.15c-0.273,-4.646 -0.273,-19.681 -0.273,-31.571c0,-16.263 0,-24.326 0.273,-29.109c0.274,-4.921 0.821,-6.423 3.827,-7.38c1.778,-0.546 4.101,-0.956 7.107,-1.366c0.547,-0.547 0.41,-3.281 -0,-3.827c-2.187,-0 -10.113,0.41 -16.947,0.41c-7.243,-0 -13.939,-0.547 -17.083,-0.547c-0.683,0.683 -0.82,3.417 -0.137,3.964c3.554,0.41 6.014,0.82 8.063,1.502c1.914,0.684 2.597,2.323 2.735,4.51c0.272,4.92 0.272,20.364 0.272,27.471c0,0.272 -0.409,0.819 -0.82,0.819c-1.23,0.138 -6.423,0.138 -21.457,0.273c-19.816,0 -22.276,-0.135 -23.233,-0.273c-0.41,-0.137 -0.682,-0.819 -0.682,-1.366c-0,-13.394 -0.138,-20.364 0.135,-25.42c0.137,-4.374 1.094,-5.467 3.827,-6.287c1.503,-0.409 4.101,-0.819 6.561,-1.229c0.546,-0.411 0.546,-3.145 0.136,-3.827c-3.827,-0 -7.926,0.41 -17.084,0.41c-7.379,-0 -14.213,-0.41 -17.493,-0.41c-0.547,0.546 -0.682,3.28 -0.136,3.827Zm147.923,-0.138c3.144,0.41 5.467,0.82 7.244,1.367c3.28,0.82 3.826,2.051 4.099,6.97c0.137,2.46 0.137,14.623 0.137,27.06c0,15.443 0,30.477 -0.137,33.073c-0.41,4.784 -1.367,6.56 -4.647,7.38c-2.46,0.684 -6.15,0.957 -10.386,1.368c-0.547,0.682 -0.41,3.552 0.137,3.962c5.603,0 12.437,-0.41 21.593,-0.41c14.213,0 24.053,0.547 35.534,0.547c6.833,0 7.653,-0.684 8.472,-2.187c2.051,-4.1 5.057,-14.487 5.741,-18.723c-0.547,-0.683 -3.28,-1.639 -3.964,-1.504c-1.777,4.101 -4.647,9.567 -6.833,12.027c-2.46,3.143 -4.236,4.374 -10.114,4.51c-5.602,0 -17.493,-0.136 -20.226,-0.82c-1.64,-0.547 -3.143,-2.46 -3.143,-5.193c-0.274,-6.56 -0.274,-21.047 -0.274,-27.333c0,-0.41 0.41,-1.094 0.684,-1.094c5.056,-0.137 16.4,-0.137 20.499,0.274c3.144,0.273 4.101,2.049 4.648,3.963c0.546,1.641 0.682,2.733 1.092,5.603c0.684,0.684 3.964,0.547 4.647,-0.136c-0.136,-3.417 -0.273,-7.381 -0.273,-12.437c0,-4.783 0.547,-10.114 0.957,-12.847c-0.547,-0.684 -3.69,-0.82 -4.51,-0.41c-0.411,2.051 -0.956,3.964 -1.503,5.467c-0.684,2.187 -1.641,3.826 -4.647,4.101c-4.92,0.409 -15.444,0.409 -20.91,0.272c-0.41,0 -0.684,-0.547 -0.684,-0.957c0,-6.15 0,-21.32 0.137,-28.973c0,-0.683 0.683,-2.323 1.64,-2.596c1.777,-0.137 18.314,-0.137 20.91,-0c4.511,0.41 5.74,1.913 6.833,5.193c0.548,2.051 1.093,4.374 1.504,8.336c0.41,0.41 3.69,0.41 4.237,-0.273c0.409,-5.467 1.366,-14.622 2.459,-18.723c-0,-0.136 -0.41,-0.546 -0.546,-0.683c-2.87,0.41 -9.976,0.547 -15.17,0.547l-26.923,-0c-7.654,-0 -14.761,-0.547 -18.177,-0.547c-0.547,0.683 -0.82,3.28 -0.137,3.826Zm115.397,77.217c-0.546,0.546 -0.546,3.416 -0,3.963c2.597,0 6.834,-0.41 14.623,-0.41c7.654,0 14.625,0.41 17.493,0.41c0.411,-0.547 0.684,-3.417 0.275,-3.963c-2.598,-0.274 -4.921,-0.683 -6.56,-1.093c-4.237,-1.094 -4.511,-2.597 -4.374,-4.921c0.273,-3.28 4.647,-14.76 7.379,-22.139c0.138,-0.41 0.821,-1.23 1.367,-1.23l24.19,0c0.274,0 1.094,0.546 1.231,0.957c2.46,6.15 6.56,17.629 8.199,23.506c0.411,1.23 0.274,2.596 -1.502,3.417c-2.051,0.683 -4.511,1.093 -7.518,1.503c-0.546,0.546 -0.273,3.416 0.137,3.963c2.87,-0.137 11.206,-0.41 17.903,-0.41c6.15,0 13.121,0.273 16.674,0.41c0.41,-0.547 0.819,-3.553 0.273,-3.963c-9.84,-1.23 -10.797,-1.913 -14.759,-11.07c-4.784,-11.343 -19.954,-54.575 -22.687,-62.343c-0.957,-2.574 -1.64,-5.034 -2.188,-7.083c-0.409,-0 -1.776,0.136 -4.509,0.136c-2.323,-0 -3.963,-0.136 -4.511,-0.136c-0.272,1.913 -1.229,4.919 -2.323,7.767c-3.006,8.723 -15.852,43.482 -22.822,60.019c-4.511,10.523 -6.15,11.48 -15.991,12.71Zm42.777,-66.329c2.186,5.877 7.379,21.001 10.114,29.452c0.273,0.523 -0.137,1.07 -0.411,1.07c-1.367,0.137 -5.876,0.137 -9.156,0.137c-5.193,0 -9.567,0 -10.933,-0.137c-0.41,-0.136 -0.547,-0.41 -0.547,-0.933c2.323,-7.221 7.926,-22.62 10.249,-29.407c0.137,-0.319 0.547,-0.182 0.684,-0.182Zm92.847,-10.751c2.734,0.273 5.33,0.683 7.38,1.093c3.416,0.82 4.373,2.46 4.51,6.287c0.137,4.237 0.137,17.903 0.137,31.844c-0,7.516 -0.137,26.102 -0.274,29.246c-0.273,5.193 -1.367,6.833 -4.647,7.517c-1.776,0.41 -3.962,0.683 -6.969,1.093c-0.684,0.546 -0.684,3.416 -0,3.963c2.597,-0 8.473,-0.41 17.356,-0.41c9.02,0 15.58,0.41 18.177,0.41c0.683,-0.547 0.957,-3.417 0.273,-3.963c-3.143,-0.41 -5.603,-0.82 -7.653,-1.23c-3.144,-0.683 -4.1,-1.914 -4.373,-6.56c-0.274,-4.51 -0.274,-17.22 -0.274,-24.737c-0,-0.136 0.274,-0.82 0.547,-0.82c1.913,0 7.79,-0.137 9.704,0.137c1.092,0 2.459,0.683 3.416,2.05c5.193,7.38 13.53,21.047 18.723,27.197c2.324,2.87 4.51,4.509 6.56,5.466c5.057,2.46 15.99,2.87 21.867,2.597c0.82,-0.274 1.093,-3.417 0.82,-3.827c-8.2,-1.093 -10.114,-1.776 -15.717,-7.516c-6.697,-6.834 -17.493,-21.867 -22.277,-29.521c-0.136,-0.273 0,-0.682 0.274,-0.956c8.2,-3.69 15.58,-10.523 15.58,-22.003c-0,-11.48 -8.473,-21.047 -24.463,-21.047c-5.467,-0 -12.574,0.274 -22.687,0.274c-4.237,-0 -12.437,-0.41 -15.716,-0.41c-0.547,0.273 -0.821,3.28 -0.274,3.826Zm29.657,0.956c14.623,0 21.183,7.518 21.183,20.364c-0,8.884 -4.51,13.803 -8.883,15.853c-2.597,1.094 -8.473,1.367 -17.63,1.094c-0.41,0 -0.684,-0.411 -0.684,-0.684c-0,-10.659 -0,-29.246 0.274,-33.893c0,-0.684 0.547,-1.777 0.957,-2.05c1.366,-0.547 3.689,-0.684 4.783,-0.684Zm149.563,76.124c-4.782,-0.546 -7.105,-0.82 -9.293,-1.503c-3.143,-0.821 -4.237,-2.46 -4.646,-7.244c-0.41,-6.97 -0.41,-44.826 -0.41,-64.917c-0,-0.41 0.273,-0.956 0.682,-1.092c3.144,-0.137 12.712,-0.137 19.134,-0c2.596,0.136 4.237,1.229 5.33,3.962c1.093,2.598 1.777,7.381 2.187,12.163c0.41,0.547 3.964,0.547 4.373,-0.136c0.683,-7.38 1.777,-18.313 3.143,-23.096c-0.137,-0.274 -0.956,-0.684 -1.366,-0.684c-3.964,1.777 -6.97,2.051 -13.257,2.051l-50.566,-0c-5.057,-0 -8.611,-0.821 -11.071,-2.051c-0.273,-0.137 -1.502,0.273 -1.502,0.547c-0.274,5.876 -1.641,16.81 -2.734,22.55c0.273,0.683 3.691,1.503 4.236,1.093c1.914,-5.193 3.691,-10.113 5.33,-12.71c1.641,-2.733 3.417,-3.689 5.741,-3.826c5.193,-0.137 15.307,-0.137 17.63,-0c0.41,-0 0.956,0.547 0.956,1.093c0,22.687 -0.136,51.933 -0.546,62.593c-0.137,6.287 -0.82,9.02 -5.194,9.84c-2.05,0.547 -5.467,0.957 -9.703,1.367c-0.41,0.546 -0.547,3.281 -0,3.963c3.553,0 10.523,-0.41 20.637,-0.41c8.336,0 16.399,0.41 20.363,0.41c0.683,-0.272 0.957,-3.28 0.546,-3.963Zm159.438,-58.903c0.137,0.684 3.69,0.272 4.237,-0.273c0.137,-6.15 1.366,-16.264 2.187,-21.048c-6.15,-0.409 -15.307,-2.733 -26.924,-2.733c-11.616,0 -20.499,2.324 -27.743,6.288c-15.033,8.063 -21.73,22.822 -21.73,37.582c-0,28.427 16.946,45.1 47.424,45.1c8.336,0 16.946,-2.05 20.91,-3.416c3.143,-1.914 9.02,-12.573 10.386,-18.45c-0.274,-0.957 -2.597,-2.187 -3.28,-2.187c-3.553,6.013 -6.833,10.66 -10.25,13.393c-3.417,3.144 -9.156,4.647 -15.033,4.647c-24.327,0 -36.49,-18.449 -36.49,-40.317c-0,-23.096 11.343,-37.719 31.159,-37.719c6.56,-0 12.437,0.819 16.947,3.006c5.057,2.46 6.834,5.193 8.2,16.127Zm55.811,58.904c-0.546,0.545 -0.546,3.415 -0,3.962c2.597,0 6.834,-0.41 14.623,-0.41c7.654,0 14.625,0.41 17.493,0.41c0.411,-0.547 0.684,-3.417 0.275,-3.962c-2.598,-0.275 -4.921,-0.684 -6.56,-1.094c-4.237,-1.094 -4.511,-2.597 -4.374,-4.921c0.273,-3.28 4.646,-14.76 7.379,-22.139c0.137,-0.41 0.821,-1.23 1.367,-1.23l24.19,0c0.274,0 1.094,0.546 1.231,0.957c2.46,6.15 6.56,17.629 8.199,23.506c0.411,1.23 0.274,2.596 -1.502,3.417c-2.051,0.683 -4.511,1.093 -7.518,1.504c-0.546,0.545 -0.273,3.415 0.137,3.962c2.87,-0.137 11.206,-0.41 17.903,-0.41c6.15,0 13.121,0.273 16.674,0.41c0.41,-0.547 0.819,-3.552 0.273,-3.962c-9.84,-1.231 -10.797,-1.914 -14.759,-11.071c-4.784,-11.343 -19.954,-54.575 -22.687,-62.343c-0.957,-2.574 -1.641,-5.034 -2.188,-7.083c-0.409,-0 -1.776,0.136 -4.509,0.136c-2.323,-0 -3.964,-0.136 -4.511,-0.136c-0.273,1.913 -1.229,4.919 -2.323,7.767c-3.006,8.723 -15.852,43.482 -22.822,60.019c-4.511,10.523 -6.15,11.48 -15.991,12.711Zm42.777,-66.33c2.186,5.877 7.379,21.001 10.114,29.452c0.272,0.523 -0.137,1.07 -0.411,1.07c-1.367,0.137 -5.876,0.137 -9.156,0.137c-5.193,0 -9.567,0 -10.933,-0.137c-0.41,-0.136 -0.548,-0.41 -0.548,-0.933c2.324,-7.221 7.927,-22.619 10.25,-29.407c0.137,-0.319 0.547,-0.182 0.684,-0.182Zm92.846,-10.75c2.735,0.272 5.331,0.682 7.381,1.092c3.416,0.82 4.373,2.46 4.509,6.287c0.138,4.237 0.138,17.903 0.138,31.844c-0,7.517 -0.138,26.102 -0.274,29.247c-0.273,5.192 -1.367,6.832 -4.647,7.516c-1.776,0.41 -3.962,0.683 -6.969,1.094c-0.684,0.545 -0.684,3.415 -0,3.962c2.597,0 8.473,-0.41 17.356,-0.41c9.02,0 15.58,0.41 18.177,0.41c0.683,-0.547 0.957,-3.417 0.273,-3.962c-3.143,-0.411 -5.604,-0.821 -7.653,-1.231c-3.144,-0.683 -4.101,-1.914 -4.373,-6.56c-0.274,-4.509 -0.274,-17.22 -0.274,-24.737c-0,-0.136 0.274,-0.82 0.546,-0.82c1.914,0 7.791,-0.137 9.705,0.138c1.092,-0 2.459,0.682 3.415,2.049c5.194,7.38 13.531,21.047 18.724,27.197c2.324,2.87 4.51,4.509 6.56,5.466c5.056,2.46 15.99,2.87 21.867,2.597c0.82,-0.274 1.093,-3.417 0.82,-3.827c-8.201,-1.093 -10.114,-1.776 -15.717,-7.516c-6.697,-6.834 -17.494,-21.867 -22.277,-29.521c-0.136,-0.273 0,-0.682 0.274,-0.956c8.199,-3.69 15.58,-10.523 15.58,-22.003c-0,-11.48 -8.473,-21.047 -24.463,-21.047c-5.467,-0 -12.574,0.274 -22.687,0.274c-4.237,-0 -12.437,-0.41 -15.716,-0.41c-0.547,0.273 -0.821,3.28 -0.275,3.827Zm29.658,0.955c14.623,0 21.183,7.518 21.183,20.364c-0,8.884 -4.511,13.803 -8.883,15.853c-2.597,1.094 -8.473,1.367 -17.63,1.094c-0.41,0 -0.684,-0.411 -0.684,-0.684c-0,-10.659 -0,-29.246 0.274,-33.893c-0,-0.684 0.547,-1.777 0.957,-2.05c1.366,-0.547 3.689,-0.684 4.783,-0.684Zm99.816,-1.093c3.144,0.41 5.467,0.82 7.244,1.367c3.28,0.82 3.827,2.05 4.1,6.97c0.136,2.46 0.136,14.623 0.136,27.06c0,15.443 0,30.477 -0.136,33.073c-0.41,4.784 -1.367,6.56 -4.647,7.38c-2.46,0.684 -6.15,0.957 -10.387,1.367c-0.546,0.683 -0.409,3.553 0.137,3.963c5.604,0 12.437,-0.41 21.593,-0.41c14.214,0 24.054,0.547 35.534,0.547c6.834,0 7.653,-0.684 8.473,-2.187c2.05,-4.1 5.056,-14.487 5.74,-18.723c-0.547,-0.683 -3.28,-1.639 -3.964,-1.504c-1.776,4.101 -4.646,9.567 -6.832,12.027c-2.461,3.143 -4.237,4.374 -10.114,4.51c-5.603,-0 -17.493,-0.136 -20.226,-0.82c-1.641,-0.547 -3.143,-2.46 -3.143,-5.193c-0.274,-6.56 -0.274,-21.047 -0.274,-27.333c-0,-0.41 0.41,-1.094 0.683,-1.094c5.057,-0.137 16.4,-0.137 20.499,0.274c3.145,0.273 4.101,2.049 4.648,3.963c0.546,1.64 0.683,2.733 1.093,5.603c0.684,0.684 3.964,0.547 4.646,-0.136c-0.136,-3.417 -0.273,-7.381 -0.273,-12.437c0,-4.783 0.547,-10.114 0.957,-12.847c-0.547,-0.684 -3.69,-0.82 -4.509,-0.41c-0.412,2.051 -0.957,3.964 -1.504,5.467c-0.684,2.187 -1.64,3.826 -4.646,4.1c-4.921,0.41 -15.444,0.41 -20.911,0.273c-0.409,0 -0.683,-0.547 -0.683,-0.957c-0,-6.15 -0,-21.32 0.137,-28.973c-0,-0.683 0.682,-2.323 1.639,-2.596c1.777,-0.137 18.314,-0.137 20.91,-0c4.511,0.41 5.74,1.913 6.834,5.193c0.547,2.05 1.092,4.374 1.504,8.336c0.409,0.41 3.689,0.41 4.236,-0.273c0.41,-5.467 1.367,-14.623 2.459,-18.723c0,-0.136 -0.409,-0.546 -0.545,-0.683c-2.871,0.41 -9.977,0.547 -15.171,0.547l-26.923,-0c-7.653,-0 -14.76,-0.547 -18.177,-0.547c-0.547,0.683 -0.82,3.28 -0.137,3.826Zm206.178,18.314c0.137,0.683 3.69,0.272 4.237,-0.273c0.137,-6.15 1.366,-16.264 2.187,-21.048c-6.15,-0.409 -15.307,-2.733 -26.924,-2.733c-11.616,0 -20.499,2.324 -27.743,6.287c-15.033,8.064 -21.73,22.823 -21.73,37.583c-0,28.427 16.946,45.1 47.424,45.1c8.336,0 16.946,-2.05 20.91,-3.416c3.143,-1.914 9.02,-12.573 10.386,-18.45c-0.274,-0.957 -2.597,-2.187 -3.28,-2.187c-3.553,6.013 -6.833,10.66 -10.251,13.393c-3.416,3.144 -9.155,4.647 -15.032,4.647c-24.328,0 -36.49,-18.45 -36.49,-40.317c-0,-23.096 11.343,-37.719 31.159,-37.719c6.56,-0 12.437,0.819 16.947,3.006c5.057,2.46 6.834,5.193 8.2,16.127Zm61.004,-18.177c2.46,0.273 5.74,0.821 7.517,1.23c3.69,0.82 4.236,2.323 4.373,7.926c0.274,3.554 0.274,11.754 0.274,26.241c0,17.766 -0.274,31.16 -0.547,34.85c-0.274,3.28 -1.23,4.783 -4.236,5.603c-2.598,0.547 -4.921,0.82 -9.02,1.23c-0.684,0.41 -0.547,3.553 -0,3.963c2.733,0 13.119,-0.41 19.542,-0.41c6.971,0 30.477,0.684 39.224,0.684c3.69,0 5.057,-0.684 5.604,-1.777c2.323,-4.1 6.15,-17.494 7.106,-22.823c-0.546,-0.821 -3.007,-1.777 -4.1,-1.504c-2.324,5.741 -5.604,11.754 -8.064,15.034c-2.733,3.964 -5.193,4.92 -8.063,5.056c-6.013,0.137 -19.27,0.137 -22.823,-1.092c-0.82,-0.275 -2.46,-1.641 -2.597,-3.827c-0.41,-5.878 -0.41,-17.221 -0.41,-34.167c0.137,-12.847 0.137,-24.6 0.41,-29.521c0.137,-2.87 0.41,-4.646 3.69,-5.466c1.777,-0.409 3.554,-0.819 6.971,-1.23c0.682,-0.546 0.682,-3.28 -0,-3.826c-2.734,-0 -7.791,0.41 -16.948,0.41c-9.019,-0 -13.529,-0.41 -17.493,-0.41c-0.683,0.41 -0.957,3.28 -0.41,3.827Zm119.087,-0c3.691,0.545 6.287,0.82 8.338,1.502c2.87,0.821 3.142,2.87 3.415,6.287c0.411,6.423 0.411,15.307 0.411,26.513c0,17.903 0,31.98 -0.546,35.807c-0.275,3.144 -0.822,5.057 -4.784,5.877c-1.914,0.547 -3.964,0.819 -6.97,1.093c-0.546,0.411 -0.546,3.553 0.136,3.963c4.374,0 11.208,-0.41 18.997,-0.41c6.697,0 14.35,0.41 17.63,0.41c0.547,-0.41 0.82,-3.417 0.273,-3.962c-3.28,-0.411 -6.15,-0.821 -8.063,-1.368c-4.1,-0.957 -4.647,-3.28 -4.784,-7.242c-0.273,-4.784 -0.273,-17.904 -0.273,-31.435c0,-11.89 -0.137,-23.369 0.273,-29.109c0.274,-4.236 0.821,-6.014 3.964,-6.834c1.641,-0.41 3.964,-0.682 6.97,-1.092c0.409,-0.684 0.274,-3.281 -0.136,-3.827c-3.417,-0 -9.841,0.41 -16.948,0.41c-7.107,-0 -14.896,-0.41 -17.766,-0.41c-0.41,0.41 -0.684,3.28 -0.137,3.827Zm86.561,-0c5.329,0.545 8.336,1.229 10.933,3.005c3.006,1.641 3.69,4.647 3.69,6.697c-0.274,28.7 -0.684,50.977 -1.231,58.083c-0.273,5.331 -2.049,7.107 -5.193,8.064c-2.049,0.547 -4.237,0.956 -7.242,1.231c-0.41,0.41 -0.41,3.552 -0,3.962c2.87,0 8.063,-0.41 16.399,-0.41c7.653,0 13.803,0.41 17.083,0.41c0.41,-0.547 0.82,-3.417 0.273,-3.962c-3.417,-0.411 -6.15,-0.684 -8.199,-1.368c-3.554,-0.82 -5.33,-2.733 -5.604,-8.2c-0.41,-7.653 -0.41,-39.632 -0.136,-53.71c-0,-0.136 0.41,-0.273 0.547,-0.136c8.199,10.25 45.783,57.264 53.025,67.65c1.641,-0.137 7.928,-0.137 9.432,0c-0.138,-4.511 -0.275,-12.437 -0.275,-18.724c0.41,-25.83 0.275,-43.322 1.094,-53.846c0.273,-3.69 1.093,-6.15 4.647,-7.38c1.776,-0.546 3.552,-0.956 6.013,-1.366c0.546,-0.547 0.546,-3.417 -0,-3.827c-1.777,-0 -9.84,0.41 -14.487,0.41c-8.337,-0 -14.623,-0.41 -18.177,-0.41c-0.41,0.41 -0.547,3.28 0,3.827c3.69,0.41 6.697,0.955 9.157,1.639c4.1,1.094 4.921,3.28 5.194,7.244c0.684,9.839 0.546,35.396 0.546,54.119c-0.137,0.137 -0.274,0.274 -0.546,0.137c-6.56,-7.654 -34.577,-41.82 -48.516,-59.314c-3.555,-4.509 -4.374,-6.013 -4.921,-7.379c-1.094,0.137 -3.417,0.137 -6.15,0.137c-6.834,-0 -13.667,-0.41 -17.084,-0.41c-0.546,0.41 -0.682,3.416 -0.272,3.827Zm146.283,-0c3.691,0.545 6.287,0.82 8.337,1.502c2.87,0.821 3.143,2.87 3.416,6.287c0.411,6.423 0.411,15.307 0.411,26.513c-0,17.903 -0,31.98 -0.547,35.807c-0.274,3.144 -0.821,5.057 -4.783,5.877c-1.914,0.547 -3.964,0.819 -6.97,1.094c-0.547,0.41 -0.547,3.552 0.136,3.962c4.374,0 11.207,-0.41 18.996,-0.41c6.698,0 14.351,0.41 17.631,0.41c0.547,-0.41 0.819,-3.417 0.273,-3.962c-3.28,-0.411 -6.15,-0.821 -8.064,-1.368c-4.099,-0.957 -4.646,-3.28 -4.783,-7.242c-0.273,-4.784 -0.273,-17.904 -0.273,-31.435c0,-11.89 -0.137,-23.369 0.273,-29.109c0.274,-4.236 0.821,-6.014 3.964,-6.834c1.64,-0.41 3.964,-0.682 6.969,-1.092c0.41,-0.684 0.274,-3.281 -0.135,-3.827c-3.417,-0 -9.841,0.41 -16.948,0.41c-7.107,-0 -14.896,-0.41 -17.766,-0.41c-0.41,0.41 -0.684,3.28 -0.137,3.827Zm161.317,18.176c0.137,0.684 3.69,0.272 4.237,-0.273c0.137,-6.15 1.366,-16.264 2.187,-21.048c-6.15,-0.409 -15.307,-2.733 -26.924,-2.733c-11.616,0 -20.5,2.324 -27.743,6.288c-15.033,8.063 -21.73,22.822 -21.73,37.582c-0,28.427 16.946,45.1 47.423,45.1c8.337,0 16.947,-2.05 20.911,-3.416c3.143,-1.914 9.02,-12.573 10.386,-18.45c-0.274,-0.957 -2.597,-2.186 -3.28,-2.186c-3.553,6.012 -6.833,10.659 -10.25,13.392c-3.417,3.144 -9.156,4.648 -15.033,4.648c-24.327,-0 -36.491,-18.45 -36.491,-40.318c0,-23.096 11.344,-37.719 31.16,-37.719c6.56,-0 12.437,0.819 16.947,3.006c5.057,2.46 6.834,5.193 8.2,16.127" style="fill:#1a1a18;fill-rule:nonzero;"/><path d="M1077.13,734.355c-2.717,-1.019 -14.606,2.377 -15.965,5.095c0.34,12.909 8.832,52.311 12.568,57.066c9.851,4.757 30.572,11.55 55.029,11.55c54.009,0 82.542,-31.25 82.542,-65.898c0,-25.476 -11.549,-39.743 -34.986,-53.331c-14.607,-8.492 -26.496,-14.605 -41.442,-23.097c-14.607,-8.832 -22.42,-16.645 -22.42,-32.27c0,-14.607 10.871,-28.873 29.214,-28.873c10.529,-0 19.362,2.377 26.156,7.813c7.132,5.774 11.888,15.625 15.285,35.327c1.699,1.698 13.586,1.698 15.625,-0.341c1.019,-20.041 3.057,-39.741 5.775,-52.311c-18.683,-1.698 -32.61,-6.453 -60.123,-6.453c-39.743,-0 -73.033,21.739 -73.033,61.822c0,38.045 28.194,53.669 54.35,68.276c34.648,20.041 41.441,29.212 41.441,44.838c0,19.022 -15.966,26.495 -30.232,26.495c-9.172,-0 -22.419,-3.057 -31.251,-9.511c-12.228,-9.511 -21.06,-24.797 -28.533,-46.197Zm203.109,53.33c-1.358,2.378 -1.358,12.909 0,15.286c10.531,0 26.496,-1.019 42.121,-1.019c23.437,-0 39.063,1.019 46.536,1.019c1.699,-2.038 2.378,-13.587 1.02,-15.286c-6.115,-1.019 -11.89,-2.038 -17.664,-3.397c-8.492,-2.038 -9.851,-5.435 -9.851,-11.209c-0,-5.434 5.095,-19.362 11.21,-37.026c0.679,-1.358 2.717,-3.396 4.075,-3.396c4.757,-0.34 9.851,-0.34 25.817,-0.34c10.53,0 24.456,0 30.91,0.34c1.699,-0 3.398,1.019 4.077,2.377c4.416,10.191 12.228,30.912 13.926,41.103c0.68,1.698 0.34,4.755 -3.057,6.793c-3.735,2.037 -10.529,3.397 -18.342,4.755c-1.699,1.699 -1.02,12.909 0.339,15.286c10.87,0 28.534,-1.019 52.991,-1.019c26.835,-0 41.44,1.019 50.272,1.019c1.699,-1.698 3.057,-13.247 1.359,-15.286c-27.174,-4.076 -28.872,-6.793 -40.761,-34.648c-12.908,-30.91 -41.103,-106.772 -52.311,-136.268c-2.378,-6.398 -4.757,-15.229 -6.794,-22.023c-4.416,0.339 -10.191,0.339 -17.663,0.339c-6.455,0 -12.568,0 -17.325,-0.339c-1.018,6.794 -5.095,19.984 -8.492,28.137c-8.152,23.721 -33.967,91.091 -52.311,134.231c-10.189,23.099 -14.945,26.495 -40.082,30.571Zm106.321,-143.797c6.794,17.606 19.702,53.839 22.759,62.67c-0,0.622 -0.68,1.982 -1.36,1.982c-3.057,0.339 -10.53,0.679 -21.06,0.679c-9.851,-0 -18.343,-0 -22.079,-0.34c-1.359,-0.339 -1.359,-1.699 -1.359,-2.66c6.115,-17.947 15.626,-44.668 21.4,-61.879c0.679,-0.793 1.358,-0.452 1.699,-0.452Zm289.728,78.239c3.737,0.679 8.492,1.358 15.625,1.358c13.588,0 28.873,-3.735 41.102,-10.529c16.644,-9.511 33.288,-27.797 33.288,-57.576c0,-23.665 -10.53,-38.611 -23.098,-48.065c-14.607,-10.87 -34.987,-12.569 -46.196,-12.569c-28.194,0 -42.801,0.339 -68.956,0.339c-18.343,0 -37.705,-1.018 -46.536,-1.018c-1.698,2.038 -2.377,11.889 -1.019,15.286c7.813,0.679 13.926,1.697 18.342,3.057c9.851,2.378 11.889,5.774 12.568,18.342c0.34,8.493 0.34,26.496 0.34,63.521c0,36.685 -0.34,58.086 -0.679,70.994c-0.34,9.171 -1.019,16.644 -9.851,19.021c-6.454,1.699 -11.889,2.378 -19.701,3.397c-1.359,2.039 -1.359,12.228 0.339,15.286c14.607,0 35.667,-1.019 53.33,-1.019c17.664,-0 40.762,1.019 57.747,1.019c2.378,-2.718 3.057,-12.568 1.358,-15.286c-9.85,-1.358 -17.324,-2.038 -24.117,-3.737c-9.851,-2.377 -11.21,-9.171 -11.889,-16.303c-0.68,-15.965 -0.34,-46.537 -0.34,-75.014c0,-50.782 0,-62.615 0.34,-73.824c0,-2.038 2.038,-4.077 2.378,-4.699c2.718,-1.359 9.171,-1.698 11.549,-1.698c29.892,-0 45.857,19.305 45.857,49.763c-0,19.305 -6.793,31.817 -18.343,38.61c-5.435,2.662 -11.209,4.019 -18.003,4.019c-4.756,0 -8.832,-0.338 -10.531,-0.679c-0.679,0.679 -1.698,3.057 -1.358,4.417c-0,3.056 3.057,11.21 6.454,13.587Zm266.969,0c3.737,0.679 8.492,1.358 15.626,1.358c13.587,0 28.872,-3.735 41.101,-10.529c16.644,-9.511 33.288,-27.797 33.288,-57.576c0,-23.665 -10.529,-38.611 -23.097,-48.065c-14.607,-10.87 -34.988,-12.569 -46.197,-12.569c-28.194,0 -42.801,0.339 -68.956,0.339c-18.343,0 -37.704,-1.018 -46.536,-1.018c-1.698,2.038 -2.377,11.889 -1.019,15.286c7.813,0.679 13.926,1.697 18.343,3.057c9.85,2.378 11.889,5.774 12.568,18.342c0.34,8.493 0.34,26.496 0.34,63.521c0,36.685 -0.34,58.086 -0.679,70.994c-0.34,9.171 -1.02,16.644 -9.852,19.021c-6.453,1.699 -11.889,2.378 -19.701,3.397c-1.359,2.039 -1.359,12.228 0.34,15.286c14.606,0 35.666,-1.019 53.33,-1.019c17.663,-0 40.762,1.019 57.746,1.019c2.378,-2.718 3.057,-12.568 1.359,-15.286c-9.851,-1.358 -17.325,-2.038 -24.117,-3.737c-9.852,-2.377 -11.21,-9.171 -11.889,-16.303c-0.681,-15.965 -0.341,-46.537 -0.341,-75.014c0,-50.782 0,-62.615 0.341,-73.824c-0,-2.038 2.037,-4.077 2.377,-4.699c2.718,-1.359 9.172,-1.698 11.549,-1.698c29.893,-0 45.858,19.305 45.858,49.763c-0,19.305 -6.794,31.817 -18.344,38.61c-5.434,2.662 -11.209,4.019 -18.003,4.019c-4.756,0 -8.832,-0.338 -10.53,-0.679c-0.679,0.679 -1.699,3.057 -1.358,4.417c-0,3.056 3.056,11.21 6.453,13.587Zm172.878,-112.774c7.133,0.679 13.926,1.697 20.381,3.736c7.473,2.038 8.492,6.114 8.831,16.644c0.34,8.832 0.34,32.61 0.34,65.898c0,30.572 0,60.124 -0.34,67.257c-0.679,12.908 -2.718,18.683 -12.228,21.06c-5.095,1.36 -9.511,2.379 -17.663,3.737c-2.039,2.039 -1.36,13.588 -0,15.286c6.113,0 23.438,-1.019 50.612,-1.019c33.629,-0 50.613,1.019 55.708,1.019c2.038,-1.359 3.736,-12.908 2.038,-15.286c-8.493,-1.698 -17.324,-3.056 -21.74,-4.755c-8.152,-2.718 -9.85,-7.813 -9.85,-17.324c-0.341,-10.53 -0.341,-33.289 -0.341,-54.349c0,-0.34 0.341,-1.698 0.68,-1.698c2.038,-0.68 12.229,-1.019 45.517,-1.019c16.644,-0 36.686,-0 43.14,0.339c1.358,-0 2.039,1.359 2.039,2.038c-0.001,22.08 0.338,44.159 -0.341,58.765c-0.34,7.813 -2.717,12.229 -7.813,13.927c-5.434,1.699 -11.208,2.718 -20.041,4.076c-2.377,2.378 -2.038,13.588 0,15.286c7.813,0 25.477,-1.019 51.292,-1.019c26.835,-0 46.197,1.019 54.01,1.019c2.377,-1.359 3.057,-13.247 2.038,-15.286c-12.229,-2.038 -19.023,-3.056 -23.778,-5.095c-6.453,-2.378 -7.813,-8.152 -8.492,-15.286c-0.679,-14.267 -0.679,-44.159 -0.679,-69.634c-0,-31.251 -0.34,-47.556 0.339,-66.578c0.68,-10.869 1.36,-15.285 8.492,-18.003c4.076,-1.699 11.21,-3.057 18.683,-3.736c2.377,-2.379 2.377,-13.248 -0,-15.626c-10.191,0 -24.117,1.019 -50.273,1.019c-25.136,0 -37.025,-1.019 -51.632,-1.019c-2.377,1.698 -2.717,13.928 -0.679,15.626c10.87,1.358 17.664,2.037 22.419,4.415c4.756,1.698 5.774,7.134 6.115,11.55c0.34,17.323 0.34,39.403 0.34,56.387c-0,1.018 -1.02,2.037 -2.379,2.377c-3.057,0.34 -11.549,0.34 -41.781,0.68c-36.345,-0 -42.12,-0 -45.517,-0.68c-0.679,-0.679 -1.358,-1.359 -1.698,-3.057c-0.001,-23.777 -0.001,-39.063 0.34,-52.65c-0,-8.493 1.358,-13.248 8.152,-15.626c3.737,-1.359 11.21,-2.717 18.003,-3.396c1.699,-1.698 2.038,-13.587 0.339,-15.626c-8.152,0 -23.778,1.019 -51.971,1.019c-29.552,0 -41.781,-1.019 -49.933,-1.019c-1.698,1.698 -2.378,13.928 -0.679,15.626Zm324.716,-0c8.152,1.018 14.266,1.697 21.399,4.076c6.114,1.698 8.492,6.113 8.832,13.926c1.018,14.267 0.679,28.195 0.679,62.502c0,28.194 0.339,69.634 -0.679,78.466c-1.019,10.87 -2.718,14.267 -12.908,16.306c-4.416,1.018 -9.512,1.698 -17.323,3.056c-2.039,1.359 -2.379,13.588 -0,15.286c10.869,0 27.173,-1.019 55.027,-1.019c26.496,-0 44.159,0.679 53.67,1.019c2.378,-1.698 3.736,-13.247 2.378,-15.286c-8.492,-1.358 -18.343,-3.056 -22.758,-4.416c-9.512,-2.717 -10.531,-8.831 -10.87,-16.304c-0.68,-12.908 -0.34,-46.198 -0.34,-77.448c-0,-29.552 -0.34,-48.915 0.34,-61.142c0.339,-7.473 0.679,-13.248 8.831,-15.626c5.095,-1.699 11.889,-2.378 20.041,-3.396c1.698,-2.379 1.359,-13.587 -0,-15.626c-9.172,0 -23.098,1.019 -54.349,1.019c-22.758,0 -41.101,-1.019 -51.291,-1.019c-1.699,2.378 -2.039,13.247 -0.679,15.626Zm188.842,-0c7.473,1.018 14.946,2.377 19.701,3.736c6.794,1.698 9.512,5.435 10.191,13.927c0.34,10.87 0.34,34.308 0.34,71.333c0,20.381 -0.34,60.124 -1.019,69.634c-0.34,10.531 -3.057,14.947 -10.87,16.646c-4.416,1.018 -11.889,2.037 -17.663,3.056c-2.718,1.699 -1.699,13.588 0.339,15.286c9.172,0 26.495,-1.019 52.311,-1.019c28.194,-0 45.857,1.019 51.972,1.019c2.377,-0.34 3.056,-14.606 1.019,-15.286c-9.173,-1.358 -13.248,-2.038 -20.381,-4.076c-7.134,-1.698 -9.171,-6.454 -9.852,-14.607c-0.339,-10.19 -0.679,-29.891 -0.679,-49.933c0,-0.679 1.019,-2.377 1.699,-2.377c2.038,-0 10.869,-0 14.606,0.34c4.076,0.339 6.794,1.358 9.171,5.095c11.89,18.003 26.156,41.441 39.743,58.425c3.397,4.756 9.851,10.869 18.003,15.285c13.587,6.794 49.254,8.493 67.597,7.473c2.038,-0.679 4.416,-14.945 3.397,-15.625c-20.382,-3.056 -24.117,-4.416 -35.666,-16.305c-15.626,-15.965 -43.819,-52.65 -52.311,-67.935c-0.34,-0.68 -0,-2.378 0.339,-2.718c22.419,-9.851 39.403,-25.477 39.403,-52.65c-0,-29.553 -24.117,-54.01 -66.917,-54.01c-11.549,0 -31.591,0.679 -64.54,0.679c-12.907,0 -40.422,-1.019 -48.574,-1.019c-2.378,1.358 -3.397,12.568 -1.359,15.626Zm90.016,2.377c28.193,0 44.498,16.985 44.498,46.536c-0,19.702 -7.813,29.552 -17.664,34.648c-5.434,3.058 -19.702,4.077 -39.063,4.077c-1.699,-0 -2.378,-1.699 -2.378,-2.718c0,-24.457 0,-64.54 0.679,-75.41c0,-1.698 1.699,-4.416 2.379,-5.434c2.378,-1.019 8.492,-1.699 11.549,-1.699Zm200.732,-2.717c8.152,1.019 14.606,2.037 20.381,3.736c6.114,1.698 9.171,4.077 9.85,14.267c0.34,10.87 0.34,37.364 0.34,63.181c0,41.101 0.339,61.483 -0.34,77.107c-0.339,10.531 -4.076,14.267 -10.529,15.626c-5.096,1.358 -14.607,3.057 -27.515,4.755c-1.359,2.378 -1.359,11.889 -0,15.286c17.324,0 44.159,-1.019 63.861,-1.019c38.043,-0 72.012,1.358 100.885,1.358c15.286,-0 17.323,-3.397 18.342,-6.113c6.794,-12.23 14.946,-40.422 16.645,-50.613c-1.699,-2.377 -13.587,-6.454 -16.645,-6.114c-4.755,10.19 -10.869,21.06 -16.644,28.873c-7.813,10.869 -13.587,12.228 -23.778,12.228c-17.663,-0 -43.478,-0.679 -49.933,-2.718c-4.076,-1.358 -7.812,-5.774 -7.812,-11.888l-0,-54.349c-0,-1.02 1.358,-3.057 2.377,-3.057c11.89,-0 34.308,-0 41.781,0.679c5.435,0.679 8.153,2.718 10.19,7.813c1.36,4.755 1.02,4.755 3.397,15.285c2.718,2.038 15.965,1.359 18.343,-0.339c-0.339,-8.832 -0.679,-24.797 -0.679,-34.988c-0,-10.87 1.698,-26.494 2.377,-34.307c-2.716,-2.039 -16.304,-2.718 -18.682,-1.359c-1.359,4.755 -2.378,10.87 -3.396,14.267c-1.699,6.453 -4.077,8.831 -9.852,9.51c-12.228,0.68 -31.929,0.34 -43.479,0.34c-1.359,-0 -2.377,-1.358 -2.377,-2.378c-0,-23.098 -0.68,-39.742 -0,-61.482c-0,-2.038 1.698,-6.455 3.736,-6.793c4.416,-0.68 40.762,-0.68 49.933,-0c5.775,0.338 11.889,2.037 14.946,10.529c2.377,5.776 3.397,10.191 5.095,21.401c2.039,1.358 14.946,1.019 17.324,-1.02c1.019,-19.022 2.378,-41.101 4.756,-51.971c-0,-1.019 -1.02,-1.698 -1.699,-2.038c-11.209,1.698 -31.25,2.038 -44.498,2.038l-72.013,0c-17.323,0 -39.062,-1.019 -53.669,-1.019c-1.698,1.698 -2.718,13.247 -1.019,15.286" style="fill:#a11216;fill-rule:nonzero;"/></g></svg>