<?xml version="1.0" encoding="UTF-8" standalone="no"?><!DOCTYPE svg PUBLIC "-//W3C//DTD SVG 1.1//EN" "http://www.w3.org/Graphics/SVG/1.1/DTD/svg11.dtd"><svg width="100%" height="100%" viewBox="0 0 1042 1042" version="1.1" xmlns="http://www.w3.org/2000/svg" xmlns:xlink="http://www.w3.org/1999/xlink" xml:space="preserve" xmlns:serif="http://www.serif.com/" style="fill-rule:evenodd;clip-rule:evenodd;stroke-linejoin:round;stroke-miterlimit:2;"><rect id="Artboard1" x="0" y="0" width="1041.67" height="1041.67" style="fill:none;"/><g id="Artboard11" serif:id="Artboard1"><g id="Layer-1" serif:id="Layer 1"><path d="M544.932,958.66c-0,-0 -414.087,-183.304 -447.611,-492.655c-11.614,-107.16 19.343,-182.49 65.981,-233.165c112.752,-122.508 304.368,-115.862 390.344,28.255c123.815,-180.795 402.42,-104.903 392.382,152.591c-23.363,-108.513 -65.955,-199.372 -207.818,-199.095c-71.214,3.734 -136.119,50.033 -191.83,158.405c-40.042,-75.128 -109.302,-137.633 -179.852,-139.278c-110.357,-2.575 -165.655,123.826 -150.27,222.458c28.538,182.917 230.343,403.561 328.674,502.484" style="fill:#a11216;"/><path d="M257.527,607.343l58.13,0l52.318,-187.47l58.13,374.941l87.195,-261.587l27.612,108.995l43.597,-62.491l29.066,23.252l80.8,-0l0,-26.153l-58.998,-0l-53.773,-34.151l-28.701,42.145l-37.42,-140.238l-78.477,231.074l-58.858,-372.763l-84.289,274.305l-77.751,-0l41.419,30.141Z" style="fill:#a97949;"/><path d="M707.115,568.322c11.738,0 21.254,9.516 21.254,21.255c-0,11.738 -9.516,21.254 -21.254,21.254c-11.739,-0 -21.255,-9.516 -21.255,-21.254c-0,-11.739 9.516,-21.255 21.255,-21.255" style="fill:#a97949;"/></g></g></svg>